<?xml version="1.0" encoding="UTF-8" standalone="no"?>
<svg
   xmlns:dc="http://purl.org/dc/elements/1.1/"
   xmlns:cc="http://creativecommons.org/ns#"
   xmlns:rdf="http://www.w3.org/1999/02/22-rdf-syntax-ns#"
   xmlns:svg="http://www.w3.org/2000/svg"
   xmlns="http://www.w3.org/2000/svg"
   xmlns:sodipodi="http://sodipodi.sourceforge.net/DTD/sodipodi-0.dtd"
   xmlns:inkscape="http://www.inkscape.org/namespaces/inkscape"
   viewBox="0 0 24 24"
   version="1.1"
   id="svg10"
   sodipodi:docname="favicon.svg"
   inkscape:version="0.92.2 5c3e80d, 2017-08-06"
   inkscape:export-filename="/home/dmpop/Downloads/favicon.png"
   inkscape:export-xdpi="516"
   inkscape:export-ydpi="516">
  <metadata
     id="metadata16">
    <rdf:RDF>
      <cc:Work
         rdf:about="">
        <dc:format>image/svg+xml</dc:format>
        <dc:type
           rdf:resource="http://purl.org/dc/dcmitype/StillImage" />
      </cc:Work>
    </rdf:RDF>
  </metadata>
  <defs
     id="defs14" />
  <sodipodi:namedview
     pagecolor="#ffffff"
     bordercolor="#666666"
     borderopacity="1"
     objecttolerance="10"
     gridtolerance="10"
     guidetolerance="10"
     inkscape:pageopacity="0"
     inkscape:pageshadow="2"
     inkscape:window-width="1920"
     inkscape:window-height="1015"
     id="namedview12"
     showgrid="false"
     inkscape:zoom="9.8333333"
     inkscape:cx="-4.7796611"
     inkscape:cy="12"
     inkscape:window-x="0"
     inkscape:window-y="0"
     inkscape:window-maximized="1"
     inkscape:current-layer="g6" />
  <g
     data-name="Layer 2"
     id="g8">
    <g
       data-name="globe"
       id="g6">
      <rect
         width="24"
         height="24"
         transform="rotate(180 12 12)"
         opacity="0"
         id="rect2" />
      <path
         d="M 23.523257,12 A 11.525424,11.525424 0 0 0 11.997833,0.47457663 a 11.525424,11.525424 0 0 0 0,23.05084637 A 11.525424,11.525424 0 0 0 23.523257,12 Z M 21.137494,10.847458 H 17.760545 A 14.879322,14.879322 0 0 0 15.075121,3.3098309 9.220339,9.220339 0 0 1 21.137494,10.847458 Z M 8.6324087,13.152542 H 15.45546 a 13.185085,13.185085 0 0 1 -3.457627,7.618305 12.677966,12.677966 0 0 1 -3.3654243,-7.618305 z m 0,-2.305084 A 13.138983,13.138983 0 0 1 11.997833,3.2406784 12.896949,12.896949 0 0 1 15.45546,10.847458 Z M 9.047324,3.2752547 A 15.190509,15.190509 0 0 0 6.3157985,10.847458 H 2.8581714 A 9.220339,9.220339 0 0 1 9.047324,3.2752547 Z M 2.8581714,13.152542 H 6.3157985 A 14.821695,14.821695 0 0 0 9.0242731,20.71322 9.220339,9.220339 0 0 1 2.8581714,13.152542 Z m 12.1593226,7.549153 a 15.144407,15.144407 0 0 0 2.743051,-7.549153 h 3.4 a 9.220339,9.220339 0 0 1 -6.143051,7.549153 z"
         id="path4"
         inkscape:connector-curvature="0"
         style="stroke-width:1.15254235;fill:#2ad4ff" />
    </g>
  </g>
</svg>
